Coordinates
version=1
nRows=57
nColumns=21
inDegrees=no
endheader
time	ra_wr_s_p	ra_wr_e_f	ra_cmc1_ad_ab	ra_cmc1_f_e	ra_mcp1_f_e	ra_ip1_f_e	ra_mcp2_e_f	ra_pip2_e_f	ra_dip2_e_f	ra_mcp3_e_f	ra_pip3_e_f	ra_dip3_e_f	ra_mcp4_e_f	ra_pip4_e_f	ra_dip4_e_f	ra_mcp5_e_f	ra_pip5_e_f	ra_dip5_e_f	ra_el_e_f	ra_wr_ad_ab
0.125000	0.000000	0.169290	0.436350	0.436350	-0.392700	-0.785400	0.785400	1.047200	0.785400	0.785400	1.047200	0.785400	0.785400	1.047200	0.785400	0.785400	1.047200	0.785400	1.570796	0.057754
0.126000	0.000000	0.171008	0.436350	0.436350	-0.392700	-0.785400	0.785400	1.047200	0.785400	0.785400	1.047200	0.785400	0.785400	1.047200	0.785400	0.785400	1.047200	0.785400	1.570796	0.057183
0.127000	0.000000	0.172752	0.436350	0.436350	-0.392700	-0.785400	0.785400	1.047200	0.785400	0.785400	1.047200	0.785400	0.785400	1.047200	0.785400	0.785400	1.047200	0.785400	1.570796	0.056603
0.128000	0.000000	0.174521	0.436350	0.436350	-0.392700	-0.785400	0.785400	1.047200	0.785400	0.785400	1.047200	0.785400	0.785400	1.047200	0.785400	0.785400	1.047200	0.785400	1.570796	0.056015
0.129000	0.000000	0.176315	0.436350	0.436350	-0.392700	-0.785400	0.785400	1.047200	0.785400	0.785400	1.047200	0.785400	0.785400	1.047200	0.785400	0.785400	1.047200	0.785400	1.570796	0.055419
0.130000	0.000000	0.178136	0.436350	0.436350	-0.392700	-0.785400	0.785400	1.047200	0.785400	0.785400	1.047200	0.785400	0.785400	1.047200	0.785400	0.785400	1.047200	0.785400	1.570796	0.054814
0.131000	0.000000	0.179983	0.436350	0.436350	-0.392700	-0.785400	0.785400	1.047200	0.785400	0.785400	1.047200	0.785400	0.785400	1.047200	0.785400	0.785400	1.047200	0.785400	1.570796	0.054200
0.132000	0.000000	0.181856	0.436350	0.436350	-0.392700	-0.785400	0.785400	1.047200	0.785400	0.785400	1.047200	0.785400	0.785400	1.047200	0.785400	0.785400	1.047200	0.785400	1.570796	0.053578
0.133000	0.000000	0.183756	0.436350	0.436350	-0.392700	-0.785400	0.785400	1.047200	0.785400	0.785400	1.047200	0.785400	0.785400	1.047200	0.785400	0.785400	1.047200	0.785400	1.570796	0.052946
0.134000	0.000000	0.185683	0.436350	0.436350	-0.392700	-0.785400	0.785400	1.047200	0.785400	0.785400	1.047200	0.785400	0.785400	1.047200	0.785400	0.785400	1.047200	0.785400	1.570796	0.052306
0.135000	0.000000	0.187637	0.436350	0.436350	-0.392700	-0.785400	0.785400	1.047200	0.785400	0.785400	1.047200	0.785400	0.785400	1.047200	0.785400	0.785400	1.047200	0.785400	1.570796	0.051656
0.136000	0.000000	0.189619	0.436350	0.436350	-0.392700	-0.785400	0.785400	1.047200	0.785400	0.785400	1.047200	0.785400	0.785400	1.047200	0.785400	0.785400	1.047200	0.785400	1.570796	0.050998
0.137000	0.000000	0.191628	0.436350	0.436350	-0.392700	-0.785400	0.785400	1.047200	0.785400	0.785400	1.047200	0.785400	0.785400	1.047200	0.785400	0.785400	1.047200	0.785400	1.570796	0.050330
0.138000	0.000000	0.193664	0.436350	0.436350	-0.392700	-0.785400	0.785400	1.047200	0.785400	0.785400	1.047200	0.785400	0.785400	1.047200	0.785400	0.785400	1.047200	0.785400	1.570796	0.049654
0.139000	0.000000	0.195729	0.436350	0.436350	-0.392700	-0.785400	0.785400	1.047200	0.785400	0.785400	1.047200	0.785400	0.785400	1.047200	0.785400	0.785400	1.047200	0.785400	1.570796	0.048967
0.140000	0.000000	0.197822	0.436350	0.436350	-0.392700	-0.785400	0.785400	1.047200	0.785400	0.785400	1.047200	0.785400	0.785400	1.047200	0.785400	0.785400	1.047200	0.785400	1.570796	0.048272
0.141000	0.000000	0.199944	0.436350	0.436350	-0.392700	-0.785400	0.785400	1.047200	0.785400	0.785400	1.047200	0.785400	0.785400	1.047200	0.785400	0.785400	1.047200	0.785400	1.570796	0.047567
0.142000	0.000000	0.202094	0.436350	0.436350	-0.392700	-0.785400	0.785400	1.047200	0.785400	0.785400	1.047200	0.785400	0.785400	1.047200	0.785400	0.785400	1.047200	0.785400	1.570796	0.046852
0.143000	0.000000	0.204273	0.436350	0.436350	-0.392700	-0.785400	0.785400	1.047200	0.785400	0.785400	1.047200	0.785400	0.785400	1.047200	0.785400	0.785400	1.047200	0.785400	1.570796	0.046128
0.144000	0.000000	0.206481	0.436350	0.436350	-0.392700	-0.785400	0.785400	1.047200	0.785400	0.785400	1.047200	0.785400	0.785400	1.047200	0.785400	0.785400	1.047200	0.785400	1.570796	0.045394
0.145000	0.000000	0.208719	0.436350	0.436350	-0.392700	-0.785400	0.785400	1.047200	0.785400	0.785400	1.047200	0.785400	0.785400	1.047200	0.785400	0.785400	1.047200	0.785400	1.570796	0.044651
0.146000	0.000000	0.210986	0.436350	0.436350	-0.392700	-0.785400	0.785400	1.047200	0.785400	0.785400	1.047200	0.785400	0.785400	1.047200	0.785400	0.785400	1.047200	0.785400	1.570796	0.043897
0.147000	0.000000	0.213283	0.436350	0.436350	-0.392700	-0.785400	0.785400	1.047200	0.785400	0.785400	1.047200	0.785400	0.785400	1.047200	0.785400	0.785400	1.047200	0.785400	1.570796	0.043134
0.148000	0.000000	0.215610	0.436350	0.436350	-0.392700	-0.785400	0.785400	1.047200	0.785400	0.785400	1.047200	0.785400	0.785400	1.047200	0.785400	0.785400	1.047200	0.785400	1.570796	0.042361
0.149000	0.000000	0.217967	0.436350	0.436350	-0.392700	-0.785400	0.785400	1.047200	0.785400	0.785400	1.047200	0.785400	0.785400	1.047200	0.785400	0.785400	1.047200	0.785400	1.570796	0.041577
0.150000	0.000000	0.220354	0.436350	0.436350	-0.392700	-0.785400	0.785400	1.047200	0.785400	0.785400	1.047200	0.785400	0.785400	1.047200	0.785400	0.785400	1.047200	0.785400	1.570796	0.040784
0.151000	0.000000	0.222773	0.436350	0.436350	-0.392700	-0.785400	0.785400	1.047200	0.785400	0.785400	1.047200	0.785400	0.785400	1.047200	0.785400	0.785400	1.047200	0.785400	1.570796	0.039980
0.152000	0.000000	0.225222	0.436350	0.436350	-0.392700	-0.785400	0.785400	1.047200	0.785400	0.785400	1.047200	0.785400	0.785400	1.047200	0.785400	0.785400	1.047200	0.785400	1.570796	0.039167
0.153000	0.000000	0.227701	0.436350	0.436350	-0.392700	-0.785400	0.785400	1.047200	0.785400	0.785400	1.047200	0.785400	0.785400	1.047200	0.785400	0.785400	1.047200	0.785400	1.570796	0.038343
0.154000	0.000000	0.230213	0.436350	0.436350	-0.392700	-0.785400	0.785400	1.047200	0.785400	0.785400	1.047200	0.785400	0.785400	1.047200	0.785400	0.785400	1.047200	0.785400	1.570796	0.037508
0.155000	0.000000	0.232755	0.436350	0.436350	-0.392700	-0.785400	0.785400	1.047200	0.785400	0.785400	1.047200	0.785400	0.785400	1.047200	0.785400	0.785400	1.047200	0.785400	1.570796	0.036663
0.156000	0.000000	0.235329	0.436350	0.436350	-0.392700	-0.785400	0.785400	1.047200	0.785400	0.785400	1.047200	0.785400	0.785400	1.047200	0.785400	0.785400	1.047200	0.785400	1.570796	0.035808
0.157000	0.000000	0.237935	0.436350	0.436350	-0.392700	-0.785400	0.785400	1.047200	0.785400	0.785400	1.047200	0.785400	0.785400	1.047200	0.785400	0.785400	1.047200	0.785400	1.570796	0.034942
0.158000	0.000000	0.240573	0.436350	0.436350	-0.392700	-0.785400	0.785400	1.047200	0.785400	0.785400	1.047200	0.785400	0.785400	1.047200	0.785400	0.785400	1.047200	0.785400	1.570796	0.034065
0.159000	0.000000	0.243242	0.436350	0.436350	-0.392700	-0.785400	0.785400	1.047200	0.785400	0.785400	1.047200	0.785400	0.785400	1.047200	0.785400	0.785400	1.047200	0.785400	1.570796	0.033178
0.160000	0.000000	0.245944	0.436350	0.436350	-0.392700	-0.785400	0.785400	1.047200	0.785400	0.785400	1.047200	0.785400	0.785400	1.047200	0.785400	0.785400	1.047200	0.785400	1.570796	0.032280
0.161000	0.000000	0.248679	0.436350	0.436350	-0.392700	-0.785400	0.785400	1.047200	0.785400	0.785400	1.047200	0.785400	0.785400	1.047200	0.785400	0.785400	1.047200	0.785400	1.570796	0.031371
0.162000	0.000000	0.251446	0.436350	0.436350	-0.392700	-0.785400	0.785400	1.047200	0.785400	0.785400	1.047200	0.785400	0.785400	1.047200	0.785400	0.785400	1.047200	0.785400	1.570796	0.030452
0.163000	0.000000	0.254245	0.436350	0.436350	-0.392700	-0.785400	0.785400	1.047200	0.785400	0.785400	1.047200	0.785400	0.785400	1.047200	0.785400	0.785400	1.047200	0.785400	1.570796	0.029522
0.164000	0.000000	0.257078	0.436350	0.436350	-0.392700	-0.785400	0.785400	1.047200	0.785400	0.785400	1.047200	0.785400	0.785400	1.047200	0.785400	0.785400	1.047200	0.785400	1.570796	0.028580
0.165000	0.000000	0.259943	0.436350	0.436350	-0.392700	-0.785400	0.785400	1.047200	0.785400	0.785400	1.047200	0.785400	0.785400	1.047200	0.785400	0.785400	1.047200	0.785400	1.570796	0.027628
0.166000	0.000000	0.262842	0.436350	0.436350	-0.392700	-0.785400	0.785400	1.047200	0.785400	0.785400	1.047200	0.785400	0.785400	1.047200	0.785400	0.785400	1.047200	0.785400	1.570796	0.026665
0.167000	0.000000	0.265774	0.436350	0.436350	-0.392700	-0.785400	0.785400	1.047200	0.785400	0.785400	1.047200	0.785400	0.785400	1.047200	0.785400	0.785400	1.047200	0.785400	1.570796	0.025691
0.168000	0.000000	0.268739	0.436350	0.436350	-0.392700	-0.785400	0.785400	1.047200	0.785400	0.785400	1.047200	0.785400	0.785400	1.047200	0.785400	0.785400	1.047200	0.785400	1.570796	0.024705
0.169000	0.000000	0.271737	0.436350	0.436350	-0.392700	-0.785400	0.785400	1.047200	0.785400	0.785400	1.047200	0.785400	0.785400	1.047200	0.785400	0.785400	1.047200	0.785400	1.570796	0.023709
0.170000	0.000000	0.274770	0.436350	0.436350	-0.392700	-0.785400	0.785400	1.047200	0.785400	0.785400	1.047200	0.785400	0.785400	1.047200	0.785400	0.785400	1.047200	0.785400	1.570796	0.022701
0.171000	0.000000	0.277835	0.436350	0.436350	-0.392700	-0.785400	0.785400	1.047200	0.785400	0.785400	1.047200	0.785400	0.785400	1.047200	0.785400	0.785400	1.047200	0.785400	1.570796	0.021682
0.172000	0.000000	0.280935	0.436350	0.436350	-0.392700	-0.785400	0.785400	1.047200	0.785400	0.785400	1.047200	0.785400	0.785400	1.047200	0.785400	0.785400	1.047200	0.785400	1.570796	0.020652
0.173000	0.000000	0.284068	0.436350	0.436350	-0.392700	-0.785400	0.785400	1.047200	0.785400	0.785400	1.047200	0.785400	0.785400	1.047200	0.785400	0.785400	1.047200	0.785400	1.570796	0.019611
0.174000	0.000000	0.287235	0.436350	0.436350	-0.392700	-0.785400	0.785400	1.047200	0.785400	0.785400	1.047200	0.785400	0.785400	1.047200	0.785400	0.785400	1.047200	0.785400	1.570796	0.018559
0.175000	0.000000	0.290436	0.436350	0.436350	-0.392700	-0.785400	0.785400	1.047200	0.785400	0.785400	1.047200	0.785400	0.785400	1.047200	0.785400	0.785400	1.047200	0.785400	1.570796	0.017495
0.176000	0.000000	0.293671	0.436350	0.436350	-0.392700	-0.785400	0.785400	1.047200	0.785400	0.785400	1.047200	0.785400	0.785400	1.047200	0.785400	0.785400	1.047200	0.785400	1.570796	0.016420
0.177000	0.000000	0.296940	0.436350	0.436350	-0.392700	-0.785400	0.785400	1.047200	0.785400	0.785400	1.047200	0.785400	0.785400	1.047200	0.785400	0.785400	1.047200	0.785400	1.570796	0.015333
0.178000	0.000000	0.300243	0.436350	0.436350	-0.392700	-0.785400	0.785400	1.047200	0.785400	0.785400	1.047200	0.785400	0.785400	1.047200	0.785400	0.785400	1.047200	0.785400	1.570796	0.014236
0.179000	0.000000	0.303581	0.436350	0.436350	-0.392700	-0.785400	0.785400	1.047200	0.785400	0.785400	1.047200	0.785400	0.785400	1.047200	0.785400	0.785400	1.047200	0.785400	1.570796	0.013127
0.180000	0.000000	0.306952	0.436350	0.436350	-0.392700	-0.785400	0.785400	1.047200	0.785400	0.785400	1.047200	0.785400	0.785400	1.047200	0.785400	0.785400	1.047200	0.785400	1.570796	0.012006
0.181000	0.000000	0.310357	0.436350	0.436350	-0.392700	-0.785400	0.785400	1.047200	0.785400	0.785400	1.047200	0.785400	0.785400	1.047200	0.785400	0.785400	1.047200	0.785400	1.570796	0.010875
